<svg width="60" height="95" viewBox="0 0 60 95" fill="none" xmlns="http://www.w3.org/2000/svg">
<path d="M55.6193 25.9126L42.2376 75.8536C39.4883 86.114 28.9004 92.216 18.6274 89.4634C15.2074 88.547 12.2393 86.7569 9.91305 84.403C7.83488 82.2928 6.25911 79.7312 5.31961 76.9313C5.31371 76.9025 5.31126 76.8608 5.29266 76.8286C5.18276 76.5266 5.08897 76.2154 5.01154 75.8945C4.98119 75.8045 4.96345 75.7182 4.93651 75.6155C4.72044 74.7944 4.56192 73.9618 4.46467 73.1044C4.44445 72.9766 4.42776 72.8356 4.42357 72.6981C4.33894 71.8445 4.30866 70.9912 4.35204 70.1172C4.35909 69.8876 4.36611 69.6575 4.38587 69.4313C4.40069 69.1219 4.44075 68.8193 4.48107 68.5164C4.50427 68.2773 4.52744 68.0384 4.57945 67.7935C4.62309 67.4782 4.6793 67.1661 4.75191 66.8449C4.82759 66.511 4.90004 66.1898 4.98523 65.8719L18.7893 14.3543C20.9083 6.44621 29.0816 1.72721 37.0025 3.84962C37.3332 3.93822 37.673 4.04288 37.9968 4.15689C38.3842 4.28792 38.7681 4.43182 39.1451 4.60092C39.4239 4.72991 39.7026 4.85907 39.9654 4.99774C40.3484 5.19586 40.7281 5.40635 41.0882 5.63919C41.1449 5.68162 41.205 5.71134 41.2619 5.75398C41.5525 5.9406 41.849 6.15641 42.1327 6.36894C42.1454 6.37234 42.1548 6.38812 42.1675 6.39153C42.2334 6.45039 42.3122 6.51217 42.3818 6.55805C42.3911 6.57416 42.4004 6.59027 42.4131 6.59367C42.5613 6.70166 42.7062 6.82219 42.8383 6.9391C42.9924 7.0759 43.1464 7.21266 43.3006 7.34946C43.332 7.38475 43.3666 7.408 43.398 7.44383C43.6589 7.69074 43.9035 7.94727 44.1484 8.20352C44.1763 8.25185 44.2202 8.29104 44.2515 8.32666C44.2609 8.34244 44.2736 8.34584 44.2828 8.36228C44.3237 8.41389 44.377 8.46903 44.4176 8.52076C44.4269 8.53687 44.4489 8.55638 44.4583 8.57253C44.4838 8.57934 44.4931 8.59545 44.499 8.62426C44.6151 8.75052 44.7277 8.88982 44.8309 9.01296C44.9714 9.20057 45.1247 9.39143 45.2651 9.57901C45.2838 9.6109 45.3023 9.64328 45.3209 9.6755C45.3302 9.69194 45.3302 9.69194 45.3429 9.69534C45.43 9.82745 45.5172 9.95993 45.6046 10.0921C45.751 10.3087 45.8845 10.5218 46.0149 10.7472C46.0428 10.7956 46.0672 10.8568 46.1044 10.9212C46.1975 11.0821 46.2907 11.2433 46.3709 11.4011C46.436 11.514 46.4852 11.636 46.5502 11.7489C46.5899 11.855 46.6331 11.9485 46.6889 12.0453C46.7133 12.1065 46.7472 12.1833 46.7717 12.2445C46.8394 12.399 46.907 12.5533 46.9618 12.7043C47.0051 12.7974 47.0355 12.8874 47.0658 12.9775C47.0869 13.0514 47.1208 13.1285 47.1547 13.2055C47.1606 13.2343 47.1792 13.2665 47.185 13.2955C47.1909 13.3243 47.2002 13.3404 47.2188 13.3728C47.2154 13.3855 47.2213 13.4143 47.2306 13.4305C47.2399 13.4466 47.2458 13.4754 47.255 13.4917C47.2948 13.5978 47.3312 13.7163 47.3547 13.8317C47.3886 13.9091 47.4097 13.9824 47.4309 14.0564C47.4882 14.2491 47.5296 14.4508 47.5869 14.6434C47.6106 14.7585 47.6377 14.8613 47.6612 14.9767C47.7 15.1369 47.7389 15.2972 47.7649 15.4542L47.7616 15.4665L47.7743 15.47C47.7709 15.4827 47.7836 15.4861 47.7802 15.4988C47.9269 16.2739 47.9997 17.0703 48.0183 17.8654C48.0229 18.1531 48.0184 18.4244 48.0139 18.6955C48.0059 18.9795 47.9852 19.2605 47.9645 19.5411C47.9438 19.8216 47.9104 20.0988 47.8644 20.3726C47.831 20.6498 47.7815 20.9363 47.7226 21.207C47.6604 21.4897 47.5981 21.7731 47.5232 22.0528L37.7322 58.5932C37.6879 58.7584 37.6343 58.9076 37.568 59.0536C37.3308 59.6847 37.0459 60.2897 36.7077 60.8398C35.8701 62.2368 34.7139 63.3989 33.3774 64.2671C32.9353 64.5439 32.4747 64.7885 32.0149 64.9786C31.6348 65.1766 31.2268 65.3261 30.8257 65.4501C30.5144 65.5441 30.2066 65.625 29.902 65.6934C29.2514 65.8324 28.5892 65.9139 27.9185 65.9251C27.6022 65.9355 27.2766 65.9302 26.9579 65.8992C26.6231 65.8778 26.2916 65.8431 25.9543 65.7801C25.6389 65.7368 25.3303 65.6676 25.0252 65.5858L24.9615 65.5687C19.3546 64.0664 16.0224 58.2953 17.5249 52.6881L23.7693 29.3838C24.1815 27.8454 25.7453 26.9424 27.2838 27.3546C28.8095 27.7634 29.7248 29.3307 29.3126 30.8692L23.0681 54.174C22.3868 56.7167 23.9038 59.3447 26.4467 60.026L26.5104 60.0431C26.7934 60.1053 27.0799 60.1549 27.3605 60.1754L27.3986 60.1856C27.5325 60.1943 27.6539 60.1994 27.7784 60.1919C29.8609 60.1504 31.749 58.7487 32.3112 56.6506L41.9795 20.5681C42.2452 19.5763 42.3388 18.5658 42.2595 17.5906C42.2697 17.5525 42.2638 17.5235 42.2579 17.4947C42.2613 17.482 42.2613 17.482 42.2486 17.4786C42.2428 17.2456 42.2118 17.0056 42.1647 16.7748C42.1588 16.7459 42.153 16.717 42.1471 16.6882C42.1194 16.4356 42.0662 16.1761 41.9843 15.9227C41.5777 14.2874 40.6959 12.7975 39.4833 11.6276C38.3992 10.5875 37.0554 9.80532 35.517 9.3931C30.6602 8.09172 25.6466 10.9862 24.3452 15.843L10.5411 67.3606C8.72872 74.1246 12.3892 81.0602 18.7946 83.4987C18.9819 83.5625 19.182 83.6298 19.3659 83.7064C19.5659 83.7737 19.7693 83.8282 19.9728 83.8827L20.1127 83.9202C20.2906 83.9678 20.472 84.0028 20.65 84.0505C27.6923 85.6374 34.7974 81.3958 36.6814 74.3648L50.063 24.4238L55.6193 25.9126Z" fill="#F7BD2E"/>
<path opacity="0.07" d="M32.1677 56.6501L41.8367 20.565C42.1602 19.3578 42.2244 18.1419 42.0632 16.9757C42.7923 18.7563 42.9679 20.779 42.4327 22.7765L32.7637 58.8615C32.0818 61.4064 29.4535 62.9215 26.903 62.2381C24.799 61.6743 23.3959 59.786 23.3539 57.7142C23.9622 58.8146 24.9986 59.6761 26.3072 60.0267C28.8575 60.7101 31.4859 59.1948 32.1677 56.6501Z" fill="#040000"/>
<path d="M47.6614 14.9773C47.7002 15.1374 47.7391 15.2978 47.7651 15.4548C47.7559 15.4383 47.7432 15.4349 47.7465 15.4225C46.5051 11.9694 44.0134 9.01213 40.6519 7.26666C39.6996 6.75222 38.6875 6.35867 37.607 6.06914C29.6862 3.94677 21.5162 8.65286 19.3938 16.5738L5.58963 68.0915C4.85725 70.8249 4.74372 73.5882 5.19758 76.2172C5.22274 76.4282 5.26409 76.6303 5.29266 76.8286C5.19546 76.53 5.09831 76.2313 5.03009 75.9269C5.03009 75.9269 5.00809 75.9074 5.01149 75.8947C4.98114 75.8047 4.96341 75.7184 4.93647 75.6157C4.7204 74.7945 4.56187 73.9619 4.46463 73.1045C4.4444 72.9768 4.42771 72.8358 4.42352 72.6983C4.33889 71.8446 4.30862 70.9914 4.352 70.1174C4.35905 69.8878 4.36607 69.6577 4.38583 69.4315C4.40065 69.1221 4.44071 68.8195 4.48102 68.5165C4.50423 68.2775 4.52739 68.0386 4.57941 67.7936C4.62304 67.4783 4.67925 67.1662 4.75187 66.8451C4.82759 66.511 4.90004 66.1898 4.98523 65.8719L18.7893 14.3543C20.9083 6.44621 29.0816 1.72721 37.0025 3.84962C37.3332 3.93822 37.673 4.04288 37.9968 4.15689C38.3842 4.28792 38.7681 4.43182 39.1451 4.60092C39.4239 4.72991 39.7026 4.85907 39.9654 4.99774C40.3484 5.19586 40.7281 5.40635 41.0882 5.63919C41.1449 5.68162 41.205 5.71134 41.2619 5.75398C41.5525 5.9406 41.849 6.15641 42.1327 6.36894C42.1454 6.37234 42.1548 6.38812 42.1675 6.39153C42.2334 6.45039 42.3122 6.51217 42.3818 6.55805C42.3911 6.57416 42.4004 6.59027 42.4131 6.59367C42.5613 6.70166 42.7062 6.82219 42.8383 6.9391C42.9924 7.0759 43.1464 7.21266 43.3006 7.34946C43.332 7.38475 43.3666 7.408 43.398 7.44383C43.6589 7.69074 43.9035 7.94727 44.1484 8.20352C44.1763 8.25185 44.2202 8.29104 44.2515 8.32666C44.2609 8.34244 44.2736 8.34584 44.2828 8.36228C44.3237 8.41389 44.377 8.46903 44.4176 8.52076C44.4269 8.53687 44.4489 8.55638 44.4583 8.57253L44.4676 8.58864C44.4769 8.60475 44.4897 8.60816 44.499 8.62426C44.6151 8.75052 44.7277 8.88982 44.8309 9.01296C44.9273 9.1615 45.0307 9.28436 45.1306 9.42025C45.1839 9.47538 45.2247 9.52732 45.2653 9.57905C45.284 9.61094 45.3025 9.64332 45.3211 9.67554C45.3303 9.69198 45.3303 9.69198 45.343 9.69538C45.4302 9.82749 45.5174 9.95998 45.6047 10.0921C45.7511 10.3087 45.8846 10.5219 46.0151 10.7473C46.043 10.7956 46.0674 10.8568 46.1046 10.9212C46.1977 11.0822 46.2781 11.2399 46.3585 11.3978L46.3713 11.4012C46.4363 11.5141 46.4855 11.6361 46.5506 11.749C46.5658 11.7939 46.5936 11.8424 46.5961 11.8839C46.6369 11.9357 46.6613 11.9969 46.6892 12.0452C46.7137 12.1064 46.7476 12.1832 46.772 12.2444C46.8398 12.3989 46.9073 12.5532 46.9622 12.7042C47.0055 12.7974 47.0359 12.8874 47.0662 12.9774C47.0872 13.0513 47.1212 13.1285 47.1551 13.2054C47.1609 13.2343 47.1795 13.2665 47.1854 13.2954C47.1913 13.3243 47.2006 13.3404 47.2192 13.3728C47.2158 13.3855 47.2216 13.4143 47.2309 13.4304C47.2402 13.4465 47.2461 13.4753 47.2554 13.4916C47.2952 13.5977 47.3315 13.7162 47.3551 13.8317C47.389 13.9090 47.41 13.9824 47.4312 14.0563C47.4885 14.2490 47.53 14.4508 47.5873 14.6433C47.6108 14.7591 47.6379 14.8618 47.6614 14.9773Z" fill="#F9F4F1"/>
<path d="M47.7608 15.4689L47.7645 15.4551C47.7786 15.4589 47.7749 15.4727 47.7749 15.4727L47.7608 15.4689Z" fill="#F9F4F1"/>
<g opacity="0.07">
<path d="M55.4791 25.8608L54.9662 27.7749L50.5308 26.5864L37.1472 76.5349C35.2178 83.7355 27.7825 88.0213 20.572 86.0892C15.3438 84.6883 11.6462 80.3966 10.7471 75.3974C12.2045 79.4172 15.5379 82.6888 19.9762 83.878C27.1865 85.81 34.6223 81.5228 36.5517 74.3222L49.935 24.3752L55.4791 25.8608Z" fill="#040000"/>
</g>
<g opacity="0.07">
<path d="M55.4764 25.8702L55.479 25.8605L49.9347 24.3749L36.5513 74.3222C34.6345 81.4761 27.2824 85.7477 20.116 83.9083L18.6261 89.4688C28.8933 92.2199 39.4825 86.1126 42.2311 75.8547L55.6145 25.9072L55.4764 25.8702Z" fill="#040000"/>
<path d="M47.7627 15.4689L47.7664 15.4551C47.7806 15.4589 47.7769 15.4727 47.7769 15.4727L47.7627 15.4689Z" fill="#040000"/>
<path d="M47.5238 22.0529L37.7329 58.5933C37.6886 58.7584 37.635 58.9077 37.5686 59.0536C37.3315 59.6847 37.0466 60.2898 36.7084 60.8398C35.8708 62.2369 34.7146 63.3989 33.3781 64.2672C32.9521 64.5347 32.4914 64.7789 32.0155 64.9787C31.6355 65.1766 31.2274 65.3262 30.8264 65.4502C30.5151 65.5442 30.2073 65.6251 29.9026 65.6934C29.2521 65.8325 28.5899 65.914 27.9191 65.9252C27.6028 65.9356 27.2773 65.9302 26.9586 65.8993C26.6237 65.8779 26.2923 65.8432 25.9549 65.7802C25.6395 65.7369 25.3309 65.6676 25.0259 65.5859L26.5112 60.0427C26.7942 60.1049 27.0807 60.1544 27.3613 60.175C28.0506 60.1963 28.7106 60.073 29.3339 59.8315C29.4562 59.7824 29.5783 59.7333 29.691 59.6683C29.8133 59.6192 29.9261 59.5539 30.0423 59.476C30.1551 59.4107 30.2553 59.3424 30.3715 59.2644C30.5879 59.1182 30.7855 58.9396 30.9741 58.7445C31.0293 58.6911 31.0844 58.6377 31.1431 58.5719C31.2602 58.4396 31.3809 58.295 31.4794 58.1305C31.5576 58.0427 31.6135 57.9349 31.6858 57.8181C31.6893 57.8051 31.7054 57.7961 31.7249 57.7739C31.781 57.6663 31.8371 57.5586 31.884 57.435C31.9401 57.3273 31.9801 57.2289 32.0234 57.1179C32.0771 56.9685 32.134 56.8069 32.1749 56.6542L41.8432 20.5716C42.1669 19.3635 42.2227 18.1384 42.0697 16.98C42.1399 17.1762 42.1939 17.3813 42.2606 17.5901C42.2582 17.5486 42.2523 17.5196 42.2498 17.4781C42.2315 17.2417 42.2003 17.0017 42.1659 16.7743C42.16 16.7454 42.1541 16.7165 42.1482 16.6877C42.1079 16.4317 42.0513 16.1849 41.9855 15.9222C41.5592 14.3089 40.6903 12.8224 39.4776 11.6525L41.089 5.63876C41.1457 5.68119 41.2058 5.71092 41.2627 5.75356C41.5533 5.94018 41.8498 6.15599 42.1335 6.36851C42.1462 6.37192 42.1556 6.3877 42.1683 6.3911C42.2342 6.44997 42.313 6.51175 42.3826 6.55763C42.3919 6.57416 42.4012 6.58984 42.4139 6.59325C42.5621 6.70124 42.707 6.82176 42.8391 6.93868C42.9933 7.07548 43.1472 7.21223 43.3014 7.34903C43.3328 7.38433 43.3674 7.40757 43.3988 7.4434C43.6597 7.69031 43.9043 7.94685 44.1492 8.2031C44.1771 8.25142 44.221 8.29061 44.2523 8.32624C44.2617 8.34201 44.2744 8.34542 44.2836 8.36186C44.3245 8.41347 44.3778 8.4686 44.4184 8.52033C44.4277 8.53644 44.4497 8.55596 44.4591 8.57211L44.4684 8.58822C44.4777 8.60433 44.4905 8.60773 44.4998 8.62384C44.6159 8.7501 44.7285 8.88939 44.8317 9.01253C44.9281 9.16108 45.0315 9.28393 45.1314 9.41982C45.1906 9.50394 45.2627 9.59133 45.3219 9.67512C45.3311 9.69155 45.3311 9.69155 45.3438 9.69496C45.43 9.82707 45.5182 9.95955 45.6055 10.0917C45.7519 10.3083 45.8854 10.5215 46.0159 10.7469C46.0438 10.7952 46.0682 10.8564 46.1054 10.9208C46.1985 11.0817 46.2789 11.2395 46.3593 11.3974C46.4523 11.5586 46.52 11.7133 46.5969 11.8835C46.6621 11.9965 46.7018 12.1026 46.7508 12.2245C46.8617 12.4721 46.9596 12.7165 47.067 12.977C47.088 13.0509 47.122 13.128 47.1559 13.205C47.1618 13.2338 47.1804 13.266 47.1862 13.295C47.1921 13.3238 47.2014 13.3399 47.22 13.3723C47.2166 13.385 47.2224 13.4138 47.2317 13.43C47.2411 13.4461 47.2469 13.4749 47.2562 13.4912C47.296 13.5973 47.3324 13.7158 47.3559 13.8312C47.3898 13.9086 47.4108 13.9819 47.432 14.0559C47.4893 14.2486 47.5308 14.4503 47.5881 14.6429C47.6117 14.758 47.6389 14.8608 47.6624 14.9762C47.7012 15.1364 47.7401 15.2967 47.7661 15.4537C47.7569 15.4372 47.7442 15.4338 47.7475 15.4215C47.7442 15.4338 47.7534 15.4503 47.7628 15.466C47.906 16.2541 47.9915 17.0537 48.0194 17.8649C48.0241 18.1526 48.0196 18.4239 48.0151 18.695C48.007 18.979 47.9864 19.26 47.9657 19.5406C47.945 19.8211 47.9116 20.0983 47.8656 20.3721C47.8322 20.6493 47.7827 20.9358 47.7237 21.2065C47.6613 21.4898 47.5988 21.7732 47.5238 22.0529Z" fill="#040000"/>
</g>
</svg>
